<?xml version="1.0" encoding="utf-8"?>
<!-- Generator: Adobe Illustrator 23.0.1, SVG Export Plug-In . SVG Version: 6.00 Build 0)  -->
<svg version="1.1" id="Layer_1" xmlns="http://www.w3.org/2000/svg" xmlns:xlink="http://www.w3.org/1999/xlink" x="0px" y="0px"
	 width="269px" height="105px" viewBox="0 0 269 105" style="enable-background:new 0 0 269 105;" xml:space="preserve">
<style type="text/css">
	.st0{fill:#093472;}
</style>
<g>
	<g>
		<g>
			<path class="st0" d="M4.1,18.3c-0.5,0-1-0.4-1-1V3.1c0-0.5,0.4-1,1-1h11.8c0.5,0,1,0.4,1,1c0,0.5-0.4,1-1,1H5.1v13.2
				C5.1,17.9,4.7,18.3,4.1,18.3z"/>
			<path class="st0" d="M264.9,18.3c-0.5,0-1-0.4-1-1V4.1h-10.8c-0.5,0-1-0.4-1-1c0-0.5,0.4-1,1-1h11.8c0.5,0,1,0.4,1,1v14.2
				C265.9,17.9,265.4,18.3,264.9,18.3z"/>
			<path class="st0" d="M15.9,102.9H4.1c-0.5,0-1-0.4-1-1V87.7c0-0.5,0.4-1,1-1c0.5,0,1,0.4,1,1v13.2h10.8c0.5,0,1,0.4,1,1
				C16.9,102.4,16.4,102.9,15.9,102.9z"/>
			<path class="st0" d="M264.9,102.9h-11.8c-0.5,0-1-0.4-1-1c0-0.5,0.4-1,1-1h10.8V87.7c0-0.5,0.4-1,1-1c0.5,0,1,0.4,1,1v14.2
				C265.9,102.4,265.4,102.9,264.9,102.9z"/>
		</g>
		<g>
			<g>
				<g>
					<path class="st0" d="M27.1,82.7c-0.4,0-0.7-0.2-0.9-0.5c-0.3-0.5-0.1-1.2,0.4-1.5c0.1-0.1,9.4-5.7,15.6-13
						c5.3-6.2,7.1-12.2,6.3-14c-0.1-0.3-0.3-0.5-0.8-0.5c0,0,0,0,0,0c-1.1,0-1.6,1.1-2.6,4.1c-0.9,2.5-2.2,6-4.9,9.5
						C34.5,74,25.9,78.2,25.6,78.4c-0.5,0.3-1.2,0-1.4-0.5c-0.3-0.5,0-1.2,0.5-1.4c0.1-0.1,8.5-4.2,13.8-11.1
						c2.5-3.2,3.6-6.4,4.6-8.9c1.1-3,2-5.5,4.7-5.5c1.3,0,2.2,0.6,2.7,1.8c1.4,3.2-1.4,10.2-6.7,16.3c-6.5,7.6-15.8,13.2-16.1,13.5
						C27.5,82.6,27.3,82.7,27.1,82.7z"/>
					<path class="st0" d="M30.2,85.5c-0.4,0-0.8-0.2-1-0.6c-0.3-0.5-0.1-1.2,0.5-1.5c0.1-0.1,11.8-6.2,17.7-15.9
						c4.2-6.9,5.9-14.5,4-18.1c-0.7-1.3-1.9-2-3.5-2c-2.4-0.1-3.8,2.5-6.4,7.6c-0.9,1.8-2,3.9-3.3,6.2c-4.9,8.5-13.6,12.2-13.9,12.3
						c-0.6,0.2-1.2,0-1.4-0.6c-0.2-0.6,0-1.2,0.6-1.4c0.1,0,8.3-3.6,12.9-11.4c1.3-2.2,2.3-4.2,3.2-6c2.6-5.1,4.5-8.9,8.4-8.8
						c2.4,0.1,4.3,1.2,5.4,3.2c1.2,2.2,1.4,5.4,0.5,9.2c-0.8,3.6-2.4,7.5-4.6,11c-6.3,10.2-18.1,16.4-18.6,16.6
						C30.5,85.5,30.3,85.5,30.2,85.5z"/>
					<path class="st0" d="M33.2,88.4c-0.4,0-0.8-0.2-1-0.6c-0.3-0.5,0-1.2,0.5-1.4c0,0,3.6-1.7,7.8-4.8c3.9-2.9,9.1-7.6,12-13.9
						c1.9-4,3.1-8.4,3.5-12.3c0.4-4.1-0.2-7.5-1.6-9.8c-1.4-2.3-3.6-3.5-6.6-3.6c-3.9-0.1-7.6,4.1-11.8,13.9
						c-4.2,9.7-12.9,12.8-13.3,12.9c-0.6,0.2-1.2-0.1-1.4-0.7c-0.2-0.6,0.1-1.2,0.7-1.4l0,0c0,0,2.1-0.7,4.6-2.6
						c2.3-1.7,5.4-4.6,7.4-9.2c2.2-5.1,4.2-8.6,6.2-11c2.4-2.9,4.9-4.3,7.7-4.2c3.7,0.1,6.6,1.7,8.3,4.6c1.7,2.7,2.3,6.6,1.9,11.2
						c-0.4,4.1-1.7,8.8-3.7,13c-3.1,6.7-8.6,11.7-12.7,14.7c-4.4,3.3-8,5-8.2,5C33.5,88.4,33.3,88.4,33.2,88.4z"/>
					<path class="st0" d="M36.2,91.3c-0.4,0-0.8-0.2-1-0.7c-0.2-0.6,0-1.2,0.6-1.4c0,0,4.3-1.8,9.1-5.4c4.4-3.3,10.2-8.7,13-16.2
						c1.7-4.7,2.7-9.8,2.8-14.3c0.1-4.9-0.9-9-2.9-11.9c-2.1-3.2-5.4-4.9-9.7-5.1c-2.6-0.1-5.3,1.1-7.7,3.3
						c-2.7,2.5-4.9,6.2-6.3,10.8c-1.8,5.7-5.1,9-7.5,10.9c-2.7,2-4.9,2.6-5,2.7c-0.6,0.2-1.2-0.2-1.3-0.8c-0.2-0.6,0.2-1.2,0.8-1.3
						l0,0c0,0,2-0.6,4.4-2.4c3.1-2.4,5.4-5.6,6.7-9.7c1.5-4.9,3.9-9,6.9-11.7c2.8-2.6,6.1-4,9.2-3.8c5,0.2,8.8,2.2,11.4,6
						c2.2,3.3,3.3,7.8,3.2,13.1c-0.1,4.7-1.1,10.1-2.9,15c-2.9,8-9.1,13.8-13.8,17.3c-5,3.7-9.3,5.5-9.5,5.6
						C36.5,91.3,36.4,91.3,36.2,91.3z"/>
					<path class="st0" d="M71.8,81.7c-0.2,0-0.5-0.1-0.7-0.2c-0.1-0.1-2.1-1.6-3.7-3.7c-0.4-0.5-0.3-1.2,0.2-1.5
						c0.5-0.4,1.2-0.3,1.5,0.2c1.4,1.9,3.3,3.3,3.3,3.3c0.5,0.4,0.6,1,0.2,1.5C72.5,81.6,72.1,81.7,71.8,81.7z"/>
					<path class="st0" d="M65.9,73.8c-0.4,0-0.9-0.3-1-0.7c-1.4-3.5-1.6-7.2-0.6-10.9c2.5-9.5,1.5-18.6-2.8-24.3
						c-3.1-4.1-7.5-6.3-13.3-6.6c-3.3-0.1-6.8,1.2-10,3.7c-3.4,2.8-6.1,6.6-7.6,11.2c-0.8,2.3-1.2,3.4-2,4.9
						c-0.3,0.5-0.9,0.7-1.5,0.5c-0.5-0.3-0.7-0.9-0.5-1.5c0.7-1.4,1.1-2.4,1.9-4.6c1.6-4.9,4.5-9.2,8.3-12.2
						c3.6-2.9,7.6-4.3,11.4-4.2c6.4,0.2,11.5,2.8,14.9,7.4c2.3,3.1,3.8,7.3,4.3,11.9c0.5,4.4,0.1,9.4-1.2,14.2
						c-0.9,3.3-0.7,6.4,0.5,9.5c0.2,0.6,0,1.2-0.6,1.4C66.1,73.8,66,73.8,65.9,73.8z"/>
					<path class="st0" d="M20.7,59c-0.5,0-1-0.3-1.1-0.9c-0.1-0.6,0.2-1.2,0.8-1.3c0.1,0,2.4-0.6,4.3-3.2c0.3-0.5,1-0.6,1.5-0.3
						c0.5,0.3,0.6,1,0.3,1.5c-2.4,3.4-5.4,4.1-5.6,4.1C20.8,59,20.8,59,20.7,59z"/>
					<path class="st0" d="M74.2,78c-0.2,0-0.5-0.1-0.7-0.2c-0.3-0.2-6.5-5.1-5.8-12c0.1-0.6,0.6-1,1.2-1c0.6,0.1,1,0.6,1,1.2
						c-0.6,5.7,4.9,10,4.9,10.1c0.5,0.4,0.6,1,0.2,1.5C74.8,77.8,74.5,78,74.2,78z"/>
					<path class="st0" d="M69.6,63.3c-0.1,0-0.2,0-0.3,0c-0.6-0.1-0.9-0.7-0.8-1.3c2.5-10,1.1-19.6-3.8-26.3c-1.9-2.5-4.1-4.5-6.8-6
						c-2.7-1.5-5.8-2.4-9.1-2.5c-9.5-0.5-18,6.1-21.3,16.4c-0.2,0.6-0.8,0.9-1.4,0.7c-0.6-0.2-0.9-0.8-0.7-1.4
						c3.6-11.3,13-18.4,23.5-17.9c7.1,0.4,13.3,3.7,17.5,9.4c5.3,7.3,6.9,17.5,4.2,28.1C70.5,63,70.1,63.3,69.6,63.3z"/>
					<path class="st0" d="M20.3,53.4C20.3,53.4,20.3,53.4,20.3,53.4l0-2.2c0,0,0,0,0,0c0.1,0,2.3-0.2,3.3-4.5c0.1-0.6,0.7-1,1.3-0.8
						c0.6,0.1,0.9,0.7,0.8,1.3C24.3,53.3,20.5,53.4,20.3,53.4z"/>
					<path class="st0" d="M20.7,47.4c-0.1,0-0.2,0-0.3,0c-0.6-0.1-0.9-0.7-0.8-1.3c0.8-3.3,2.5-6.9,3.8-9.5c0.3-0.5,0.9-0.8,1.5-0.5
						c0.5,0.3,0.8,0.9,0.5,1.4l0,0c-1.2,2.5-2.9,5.9-3.6,9C21.6,47,21.2,47.4,20.7,47.4z"/>
					<path class="st0" d="M74,62.9c-0.1,0-0.2,0-0.2,0c-0.6-0.1-1-0.7-0.8-1.3c2.4-11.1,0.5-21.8-5.1-29.3c-2.1-2.8-4.7-5.1-7.7-6.7
						c-3.1-1.7-6.5-2.7-10.1-3c-4.1-0.3-8,0.4-11.6,2c-4.2,1.9-7.9,5.1-10.8,9.5c-0.3,0.5-1,0.6-1.5,0.3c-0.5-0.3-0.6-1-0.3-1.5
						C33.6,21.1,44.5,20,50.2,20.4c4,0.3,7.7,1.4,11,3.2c3.2,1.8,6,4.3,8.3,7.3c6,8,8,19.3,5.5,31C74.9,62.5,74.5,62.9,74,62.9z"/>
					<path class="st0" d="M78.8,45.4c-0.5,0-1-0.4-1.1-0.9c-1.2-7.5-4.1-13.9-8.4-18.6c-4.8-5.2-11.1-8.1-18.8-8.7
						c-4.6-0.3-11.9,1.2-17.9,5.5c-0.5,0.4-1.2,0.2-1.5-0.2C30.9,22,31,21.3,31.5,21c5.5-4,13.3-6.4,19.3-5.9
						c4.2,0.3,8.1,1.3,11.5,3c3.3,1.6,6.2,3.7,8.7,6.4c4.6,5,7.7,11.8,8.9,19.7c0.1,0.6-0.3,1.1-0.9,1.2
						C78.9,45.3,78.9,45.4,78.8,45.4z"/>
					<path class="st0" d="M75.4,24.7c-0.3,0-0.7-0.1-0.9-0.4c-4.7-6.2-14.6-11.5-22-11.9c-5.8-0.3-11.1,0.8-15.3,3
						c-0.5,0.3-1.2,0.1-1.5-0.4c-0.3-0.5-0.1-1.2,0.4-1.5c4.5-2.4,10.2-3.6,16.4-3.3c3.8,0.2,8.4,1.6,12.8,3.9
						c4.5,2.4,8.3,5.5,10.8,8.8c0.4,0.5,0.3,1.2-0.2,1.5C75.8,24.6,75.6,24.7,75.4,24.7z"/>
					<path class="st0" d="M75.8,73.2c-0.2,0-0.5-0.1-0.7-0.2c-0.2-0.1-4.2-3.2-3.2-7.8c0.1-0.6,0.7-1,1.3-0.8c0.6,0.1,1,0.7,0.8,1.3
						c-0.7,3.2,2.4,5.6,2.4,5.6c0.5,0.4,0.6,1,0.2,1.5C76.5,73.1,76.2,73.2,75.8,73.2z"/>
					<path class="st0" d="M41.4,93.6c-0.4,0-0.8-0.2-1-0.6c-0.2-0.5,0-1.2,0.5-1.4c0.2-0.1,17.3-7.9,19.5-19.1
						c0.1-0.5,0.5-0.8,1-0.9c0.5,0,0.9,0.3,1.1,0.7c0.8,2.4,3.8,9,7,10.7c0.5,0.3,0.7,0.9,0.4,1.5c-0.3,0.5-0.9,0.7-1.5,0.4
						c-3-1.6-5.5-6.1-6.8-9C60,79.9,56.5,84,51.2,87.9c-4.8,3.5-9.2,5.5-9.4,5.6C41.7,93.5,41.6,93.5,41.4,93.6z"/>
					<path class="st0" d="M47.7,94.8c-0.4,0-0.7-0.2-0.9-0.5c-0.3-0.5-0.1-1.2,0.4-1.5c3.5-2.1,12.7-8.3,13.4-12.2
						c0.1-0.5,0.5-0.8,0.9-0.9c0.5-0.1,0.9,0.2,1.1,0.6c0.5,1.2,2.4,4.5,4.2,5.6c0.5,0.3,0.7,1,0.4,1.5c-0.3,0.5-1,0.7-1.5,0.4
						c-1.2-0.7-2.5-2-3.7-4c-0.1-0.2-0.2-0.4-0.3-0.6c-1.2,2-3.5,4.2-6.8,6.8c-3.4,2.6-6.5,4.5-6.7,4.6
						C48.1,94.7,47.9,94.8,47.7,94.8z"/>
					<path class="st0" d="M55.5,94.1c-0.4,0-0.8-0.2-1-0.6c-0.3-0.5,0-1.2,0.5-1.4l0,0c0,0,4.4-2.1,6.3-4.5c0.4-0.5,1.1-0.5,1.5-0.2
						c0.5,0.4,0.5,1.1,0.2,1.5c-2.2,2.8-6.9,5-7.1,5.1C55.8,94.1,55.7,94.1,55.5,94.1z"/>
					<path class="st0" d="M23.1,33.1c-0.2,0-0.3,0-0.5-0.1c-0.5-0.3-0.7-0.9-0.5-1.5c2.9-5.6,6-7.8,6.1-7.9c0.5-0.4,1.2-0.2,1.5,0.2
						c0.4,0.5,0.2,1.2-0.2,1.5c0,0-2.8,2.1-5.4,7.2C23.8,32.9,23.4,33.1,23.1,33.1z"/>
					<path class="st0" d="M29.6,19.6c-0.4,0-0.7-0.2-0.9-0.5c-0.3-0.5-0.2-1.2,0.3-1.5l3.1-2.2c0.5-0.3,1.2-0.2,1.5,0.3
						c0.3,0.5,0.2,1.2-0.3,1.5l-3.1,2.2C30,19.5,29.8,19.6,29.6,19.6z"/>
					<path class="st0" d="M77.2,68c-0.2,0-0.4,0-0.5-0.1c-0.5-0.3-0.7-1-0.4-1.5c1.6-2.8,2.4-11,2.1-16c0-0.6,0.4-1.1,1-1.2
						c0.6,0,1.1,0.4,1.2,1c0.4,4.8-0.4,13.7-2.3,17.2C77.9,67.8,77.5,68,77.2,68z"/>
					<path class="st0" d="M79.5,33.6c-0.4,0-0.8-0.2-1-0.6l-2.4-5.3c-0.2-0.5,0-1.2,0.5-1.4c0.5-0.2,1.2,0,1.4,0.5l2.4,5.3
						c0.2,0.5,0,1.2-0.5,1.4C79.8,33.5,79.6,33.6,79.5,33.6z"/>
				</g>
			</g>
			<g>
				<g>
					<path class="st0" d="M126.5,23.2v6.6c0,0.9-0.2,1.7-0.5,2.4c1.2,1.3,1.8,2.8,1.8,4.5v7.3c0,1.8-0.6,3.4-1.9,4.6
						c-1.3,1.3-2.8,1.9-4.6,1.9H94.1V16.6H120c1.8,0,3.3,0.6,4.6,1.9C125.9,19.8,126.5,21.3,126.5,23.2z M120,22.8h-19.4
						c-0.2,0-0.3,0.1-0.3,0.3v6.6c0,0.2,0.1,0.3,0.3,0.3H120c0.2,0,0.3-0.1,0.3-0.3v-6.6C120.3,22.9,120.2,22.8,120,22.8z
						 M121.6,43.9v-7.3c0-0.2-0.1-0.3-0.3-0.3h-20.7c-0.2,0-0.3,0.1-0.3,0.3v7.3c0,0.2,0.1,0.3,0.3,0.3h20.7
						C121.5,44.2,121.6,44.1,121.6,43.9z"/>
					<path class="st0" d="M131.2,50.4V16.6h6.2v33.8H131.2z"/>
					<path class="st0" d="M175,23.2v2.6h-6.2v-2.6c0-0.2-0.1-0.3-0.3-0.3h-20.7c-0.2,0-0.3,0.1-0.3,0.3v6.9c0,0.2,0.1,0.3,0.3,0.3
						h20.7c1.8,0,3.3,0.6,4.6,1.9c1.3,1.3,1.9,2.8,1.9,4.6v6.9c0,1.8-0.6,3.4-1.9,4.6c-1.3,1.3-2.8,1.9-4.6,1.9h-20.7
						c-1.8,0-3.4-0.6-4.6-1.9c-1.3-1.3-1.9-2.8-1.9-4.6v-2.6h6.2v2.6c0,0.2,0.1,0.3,0.3,0.3h20.7c0.2,0,0.3-0.1,0.3-0.3V37
						c0-0.2-0.1-0.3-0.3-0.3h-20.7c-1.8,0-3.4-0.6-4.6-1.9c-1.3-1.3-1.9-2.8-1.9-4.6v-6.9c0-1.8,0.6-3.4,1.9-4.6
						c1.3-1.3,2.8-1.9,4.6-1.9h20.7c1.8,0,3.3,0.6,4.6,1.9C174.3,19.8,175,21.3,175,23.2z"/>
					<path class="st0" d="M209.3,16.6v6.2h-24.8v7.6h20v6.2h-20v7.6h24.8v6.2h-31.1V16.6H209.3z"/>
					<path class="st0" d="M245.8,22.8h-27.2c-0.2,0-0.3,0.1-0.3,0.3v20.7c0,0.2,0.1,0.3,0.3,0.3h27.2v6.2h-27.2
						c-1.8,0-3.4-0.6-4.6-1.9c-1.3-1.3-1.9-2.8-1.9-4.6V23.2c0-1.8,0.6-3.4,1.9-4.6c1.3-1.3,2.8-1.9,4.6-1.9h27.2V22.8z"/>
				</g>
				<g>
					<path class="st0" d="M98.4,69.1c-0.1,0.3-0.4,0.7-0.6,0.9c-0.3,0.3-0.6,0.5-0.9,0.6c-0.4,0.1-0.7,0.2-1.1,0.2H92V59.1h3.7
						c0.4,0,0.8,0.1,1.1,0.2c0.4,0.1,0.7,0.4,0.9,0.6c0.3,0.3,0.5,0.6,0.6,0.9c0.1,0.4,0.2,0.7,0.2,1.1v0.1c0,0.3,0,0.5-0.1,0.8
						c-0.1,0.3-0.2,0.5-0.3,0.7c-0.1,0.2-0.3,0.4-0.5,0.6c-0.2,0.2-0.4,0.3-0.6,0.4c0.2,0.1,0.4,0.3,0.6,0.4
						c0.2,0.2,0.3,0.4,0.5,0.6c0.1,0.2,0.2,0.5,0.3,0.7c0.1,0.3,0.1,0.5,0.1,0.8v0.8C98.6,68.3,98.5,68.7,98.4,69.1z M97.5,62
						c0-0.3,0-0.5-0.1-0.7c-0.1-0.2-0.2-0.4-0.4-0.6c-0.2-0.2-0.4-0.3-0.6-0.4c-0.2-0.1-0.5-0.1-0.7-0.1h-2.6v4h2.6
						c0.3,0,0.5,0,0.7-0.1c0.2-0.1,0.4-0.2,0.6-0.4c0.2-0.2,0.3-0.4,0.4-0.6c0.1-0.2,0.1-0.5,0.1-0.7V62z M97.5,67
						c0-0.3,0-0.5-0.1-0.7c-0.1-0.2-0.2-0.4-0.4-0.6c-0.2-0.2-0.4-0.3-0.6-0.4c-0.2-0.1-0.5-0.1-0.7-0.1h-2.6v4.7h2.6
						c0.3,0,0.5,0,0.7-0.1c0.2-0.1,0.4-0.2,0.6-0.4c0.2-0.2,0.3-0.4,0.4-0.6c0.1-0.2,0.1-0.5,0.1-0.7V67z"/>
					<path class="st0" d="M106.8,69.2c-0.1,0.3-0.4,0.7-0.6,0.9c-0.3,0.3-0.6,0.5-0.9,0.6c-0.3,0.1-0.7,0.2-1.1,0.2h-0.8
						c-0.4,0-0.8-0.1-1.1-0.2c-0.4-0.1-0.7-0.4-0.9-0.6c-0.3-0.3-0.5-0.6-0.6-0.9c-0.1-0.3-0.2-0.7-0.2-1.1v-9h1.1v9
						c0,0.3,0,0.5,0.1,0.7c0.1,0.2,0.2,0.4,0.4,0.6c0.2,0.2,0.4,0.3,0.6,0.4c0.2,0.1,0.5,0.1,0.7,0.1h0.7c0.3,0,0.5,0,0.7-0.1
						c0.2-0.1,0.4-0.2,0.6-0.4c0.2-0.2,0.3-0.4,0.4-0.6c0.1-0.2,0.1-0.5,0.1-0.7v-9h1.1v9C107,68.5,106.9,68.9,106.8,69.2z"/>
					<path class="st0" d="M115.9,68.1c0,0.4-0.1,0.8-0.2,1.1c-0.2,0.3-0.4,0.7-0.6,0.9c-0.3,0.3-0.6,0.5-0.9,0.6
						c-0.4,0.1-0.7,0.2-1.1,0.2h-0.8c-0.4,0-0.8-0.1-1.1-0.2c-0.4-0.1-0.7-0.4-0.9-0.6c-0.3-0.3-0.5-0.6-0.6-0.9
						c-0.2-0.3-0.2-0.7-0.2-1.1v-0.5l1.1-0.2v0.6c0,0.3,0.1,0.5,0.2,0.7c0.1,0.2,0.2,0.4,0.4,0.6c0.2,0.2,0.4,0.3,0.6,0.4
						c0.2,0.1,0.5,0.1,0.7,0.1h0.7c0.3,0,0.5,0,0.7-0.1c0.2-0.1,0.4-0.2,0.6-0.4c0.2-0.2,0.3-0.4,0.4-0.6c0.1-0.2,0.2-0.5,0.2-0.7
						v-0.4c0-0.4-0.1-0.7-0.2-1c-0.2-0.3-0.4-0.5-0.6-0.7c-0.3-0.2-0.6-0.3-0.9-0.5c-0.3-0.1-0.7-0.3-1-0.4c-0.3-0.1-0.7-0.3-1-0.4
						c-0.3-0.2-0.6-0.4-0.9-0.6c-0.3-0.2-0.5-0.5-0.6-0.9c-0.2-0.3-0.2-0.8-0.2-1.3v-0.2c0-0.4,0.1-0.8,0.2-1.1
						c0.1-0.3,0.4-0.7,0.6-0.9c0.3-0.3,0.6-0.5,0.9-0.6c0.4-0.1,0.7-0.2,1.1-0.2h0.8c0.4,0,0.8,0.1,1.1,0.2c0.3,0.1,0.7,0.4,0.9,0.6
						c0.3,0.3,0.5,0.6,0.6,0.9c0.1,0.3,0.2,0.7,0.2,1.1v0.3l-1.1,0.2v-0.5c0-0.3,0-0.5-0.1-0.7c-0.1-0.2-0.2-0.4-0.4-0.6
						c-0.2-0.2-0.4-0.3-0.6-0.4c-0.2-0.1-0.5-0.1-0.7-0.1h-0.7c-0.3,0-0.5,0-0.7,0.1c-0.2,0.1-0.4,0.2-0.6,0.4
						c-0.2,0.2-0.3,0.4-0.4,0.6c-0.1,0.2-0.1,0.5-0.1,0.7V62c0,0.4,0.1,0.7,0.2,0.9c0.2,0.3,0.4,0.5,0.6,0.7
						c0.3,0.2,0.6,0.3,0.9,0.5c0.3,0.1,0.7,0.3,1,0.4c0.3,0.1,0.7,0.3,1,0.5c0.3,0.2,0.6,0.4,0.9,0.6c0.3,0.2,0.5,0.5,0.6,0.9
						c0.2,0.3,0.2,0.8,0.2,1.3V68.1z"/>
					<path class="st0" d="M118.2,70.8V59.1h1.1v11.7H118.2z"/>
					<path class="st0" d="M127.9,70.8l-4.9-8.5l-0.1-0.5v9h-1.1V59.1h0.5l4.9,8.5l0.1,0.5v-9h1.1v11.7H127.9z"/>
					<path class="st0" d="M131.2,70.8V59.1h6.6v1h-5.5v4.3h4.5v1h-4.5v4.3h5.5v1H131.2z"/>
					<path class="st0" d="M146.2,68.1c0,0.4-0.1,0.8-0.2,1.1c-0.2,0.3-0.4,0.7-0.6,0.9c-0.3,0.3-0.6,0.5-0.9,0.6
						c-0.4,0.1-0.7,0.2-1.1,0.2h-0.8c-0.4,0-0.8-0.1-1.1-0.2c-0.4-0.1-0.7-0.4-0.9-0.6c-0.3-0.3-0.5-0.6-0.6-0.9
						c-0.2-0.3-0.2-0.7-0.2-1.1v-0.5l1.1-0.2v0.6c0,0.3,0.1,0.5,0.2,0.7c0.1,0.2,0.2,0.4,0.4,0.6c0.2,0.2,0.4,0.3,0.6,0.4
						c0.2,0.1,0.5,0.1,0.7,0.1h0.7c0.3,0,0.5,0,0.7-0.1c0.2-0.1,0.4-0.2,0.6-0.4c0.2-0.2,0.3-0.4,0.4-0.6c0.1-0.2,0.2-0.5,0.2-0.7
						v-0.4c0-0.4-0.1-0.7-0.2-1c-0.2-0.3-0.4-0.5-0.6-0.7c-0.3-0.2-0.6-0.3-0.9-0.5c-0.3-0.1-0.7-0.3-1-0.4c-0.3-0.1-0.7-0.3-1-0.4
						c-0.3-0.2-0.6-0.4-0.9-0.6c-0.3-0.2-0.5-0.5-0.6-0.9c-0.2-0.3-0.2-0.8-0.2-1.3v-0.2c0-0.4,0.1-0.8,0.2-1.1
						c0.1-0.3,0.4-0.7,0.6-0.9c0.3-0.3,0.6-0.5,0.9-0.6c0.4-0.1,0.7-0.2,1.1-0.2h0.8c0.4,0,0.8,0.1,1.1,0.2c0.3,0.1,0.7,0.4,0.9,0.6
						c0.3,0.3,0.5,0.6,0.6,0.9c0.1,0.3,0.2,0.7,0.2,1.1v0.3l-1.1,0.2v-0.5c0-0.3,0-0.5-0.1-0.7c-0.1-0.2-0.2-0.4-0.4-0.6
						c-0.2-0.2-0.4-0.3-0.6-0.4c-0.2-0.1-0.5-0.1-0.7-0.1h-0.7c-0.3,0-0.5,0-0.7,0.1c-0.2,0.1-0.4,0.2-0.6,0.4
						c-0.2,0.2-0.3,0.4-0.4,0.6c-0.1,0.2-0.1,0.5-0.1,0.7V62c0,0.4,0.1,0.7,0.2,0.9c0.2,0.3,0.4,0.5,0.6,0.7
						c0.3,0.2,0.6,0.3,0.9,0.5c0.3,0.1,0.7,0.3,1,0.4c0.3,0.1,0.7,0.3,1,0.5c0.3,0.2,0.6,0.4,0.9,0.6c0.3,0.2,0.5,0.5,0.6,0.9
						c0.2,0.3,0.2,0.8,0.2,1.3V68.1z"/>
					<path class="st0" d="M154.8,68.1c0,0.4-0.1,0.8-0.2,1.1c-0.2,0.3-0.4,0.7-0.6,0.9c-0.3,0.3-0.6,0.5-0.9,0.6
						c-0.4,0.1-0.7,0.2-1.1,0.2H151c-0.4,0-0.8-0.1-1.1-0.2c-0.4-0.1-0.7-0.4-0.9-0.6c-0.3-0.3-0.5-0.6-0.6-0.9
						c-0.2-0.3-0.2-0.7-0.2-1.1v-0.5l1.1-0.2v0.6c0,0.3,0.1,0.5,0.2,0.7c0.1,0.2,0.2,0.4,0.4,0.6c0.2,0.2,0.4,0.3,0.6,0.4
						c0.2,0.1,0.5,0.1,0.7,0.1h0.7c0.3,0,0.5,0,0.7-0.1c0.2-0.1,0.4-0.2,0.6-0.4c0.2-0.2,0.3-0.4,0.4-0.6c0.1-0.2,0.2-0.5,0.2-0.7
						v-0.4c0-0.4-0.1-0.7-0.2-1c-0.2-0.3-0.4-0.5-0.6-0.7c-0.3-0.2-0.6-0.3-0.9-0.5c-0.3-0.1-0.7-0.3-1-0.4c-0.3-0.1-0.7-0.3-1-0.4
						c-0.3-0.2-0.6-0.4-0.9-0.6c-0.3-0.2-0.5-0.5-0.6-0.9c-0.2-0.3-0.2-0.8-0.2-1.3v-0.2c0-0.4,0.1-0.8,0.2-1.1
						c0.1-0.3,0.4-0.7,0.6-0.9c0.3-0.3,0.6-0.5,0.9-0.6c0.4-0.1,0.7-0.2,1.1-0.2h0.8c0.4,0,0.8,0.1,1.1,0.2c0.3,0.1,0.7,0.4,0.9,0.6
						c0.3,0.3,0.5,0.6,0.6,0.9c0.1,0.3,0.2,0.7,0.2,1.1v0.3l-1.1,0.2v-0.5c0-0.3,0-0.5-0.1-0.7c-0.1-0.2-0.2-0.4-0.4-0.6
						c-0.2-0.2-0.4-0.3-0.6-0.4c-0.2-0.1-0.5-0.1-0.7-0.1h-0.7c-0.3,0-0.5,0-0.7,0.1c-0.2,0.1-0.4,0.2-0.6,0.4
						c-0.2,0.2-0.3,0.4-0.4,0.6c-0.1,0.2-0.1,0.5-0.1,0.7V62c0,0.4,0.1,0.7,0.2,0.9c0.2,0.3,0.4,0.5,0.6,0.7
						c0.3,0.2,0.6,0.3,0.9,0.5c0.3,0.1,0.7,0.3,1,0.4c0.3,0.1,0.7,0.3,1,0.5c0.3,0.2,0.6,0.4,0.9,0.6c0.3,0.2,0.5,0.5,0.6,0.9
						c0.2,0.3,0.2,0.8,0.2,1.3V68.1z"/>
					<path class="st0" d="M160.9,70.8V59.1h1.1v11.7H160.9z"/>
					<path class="st0" d="M170.7,70.8l-4.9-8.5l-0.1-0.5v9h-1.1V59.1h0.5l4.9,8.5l0.1,0.5v-9h1.1v11.7H170.7z"/>
					<path class="st0" d="M175,60.1v4.3h4.5v1H175v5.3h-1.1V59.1h6.6v1H175z"/>
					<path class="st0" d="M188.4,69.2c-0.1,0.3-0.4,0.7-0.6,0.9c-0.3,0.3-0.6,0.5-0.9,0.6c-0.3,0.1-0.7,0.2-1.1,0.2h-0.8
						c-0.4,0-0.8-0.1-1.1-0.2s-0.7-0.4-0.9-0.6c-0.3-0.3-0.5-0.6-0.6-0.9c-0.1-0.3-0.2-0.7-0.2-1.1v-6.3c0-0.4,0.1-0.8,0.2-1.1
						c0.1-0.3,0.4-0.7,0.6-0.9c0.3-0.3,0.6-0.5,0.9-0.6c0.4-0.1,0.7-0.2,1.1-0.2h0.8c0.4,0,0.8,0.1,1.1,0.2c0.3,0.1,0.7,0.4,0.9,0.6
						c0.3,0.3,0.5,0.6,0.6,0.9c0.1,0.3,0.2,0.7,0.2,1.1v6.3C188.6,68.5,188.5,68.9,188.4,69.2z M187.5,61.8c0-0.3,0-0.5-0.1-0.7
						c-0.1-0.2-0.2-0.4-0.4-0.6c-0.2-0.2-0.4-0.3-0.6-0.4c-0.2-0.1-0.5-0.1-0.7-0.1h-0.7c-0.3,0-0.5,0-0.7,0.1
						c-0.2,0.1-0.4,0.2-0.6,0.4c-0.2,0.2-0.3,0.4-0.4,0.6c-0.1,0.2-0.1,0.5-0.1,0.7v6.3c0,0.3,0,0.5,0.1,0.7
						c0.1,0.2,0.2,0.4,0.4,0.6c0.2,0.2,0.4,0.3,0.6,0.4c0.2,0.1,0.5,0.1,0.7,0.1h0.7c0.3,0,0.5,0,0.7-0.1c0.2-0.1,0.4-0.2,0.6-0.4
						c0.2-0.2,0.3-0.4,0.4-0.6c0.1-0.2,0.1-0.5,0.1-0.7V61.8z"/>
					<path class="st0" d="M196.6,70.8l-3.2-5H192v5h-1.1V59.1h3.7c0.4,0,0.8,0.1,1.1,0.2c0.3,0.1,0.7,0.4,0.9,0.6
						c0.3,0.3,0.5,0.6,0.6,0.9c0.1,0.4,0.2,0.7,0.2,1.1v0.9c0,0.4-0.1,0.8-0.2,1.1c-0.1,0.4-0.4,0.7-0.6,0.9
						c-0.3,0.3-0.6,0.5-0.9,0.6c-0.3,0.1-0.7,0.2-1.1,0.2l3.2,5H196.6z M196.5,62c0-0.3,0-0.5-0.1-0.7c-0.1-0.2-0.2-0.4-0.4-0.6
						c-0.2-0.2-0.4-0.3-0.6-0.4c-0.2-0.1-0.5-0.1-0.7-0.1H192v4.7h2.6c0.3,0,0.5,0,0.7-0.1c0.2-0.1,0.4-0.2,0.6-0.4
						c0.2-0.2,0.3-0.4,0.4-0.6c0.1-0.2,0.1-0.5,0.1-0.7V62z"/>
					<path class="st0" d="M207,70.8v-8l-0.1,0.5l-2.7,7.5h-0.6l-2.7-7.5l-0.1-0.5v8h-1.1V59.1h0.5l3.5,9.6l0,0.4l0-0.4l3.5-9.6h0.6
						v11.7H207z"/>
					<path class="st0" d="M215.1,68.1h-3.7l-0.8,2.7h-1.1l3.4-11.7h0.6l3.4,11.7h-1.1L215.1,68.1z M211.7,67.1h3.1l-1.5-5.4l0-0.4
						l0,0.4L211.7,67.1z"/>
					<path class="st0" d="M220.8,60.1v10.7h-1.1V60.1H217v-1h6.6v1H220.8z"/>
					<path class="st0" d="M225.3,70.8V59.1h1.1v11.7H225.3z"/>
					<path class="st0" d="M235.2,69.2c-0.1,0.3-0.4,0.7-0.6,0.9c-0.3,0.3-0.6,0.5-0.9,0.6c-0.3,0.1-0.7,0.2-1.1,0.2h-0.8
						c-0.4,0-0.8-0.1-1.1-0.2s-0.7-0.4-0.9-0.6c-0.3-0.3-0.5-0.6-0.6-0.9c-0.1-0.3-0.2-0.7-0.2-1.1v-6.3c0-0.4,0.1-0.8,0.2-1.1
						c0.1-0.3,0.4-0.7,0.6-0.9c0.3-0.3,0.6-0.5,0.9-0.6c0.4-0.1,0.7-0.2,1.1-0.2h0.8c0.4,0,0.8,0.1,1.1,0.2c0.3,0.1,0.7,0.4,0.9,0.6
						c0.3,0.3,0.5,0.6,0.6,0.9c0.1,0.3,0.2,0.7,0.2,1.1v6.3C235.4,68.5,235.3,68.9,235.2,69.2z M234.4,61.8c0-0.3,0-0.5-0.1-0.7
						c-0.1-0.2-0.2-0.4-0.4-0.6c-0.2-0.2-0.4-0.3-0.6-0.4c-0.2-0.1-0.5-0.1-0.7-0.1h-0.7c-0.3,0-0.5,0-0.7,0.1
						c-0.2,0.1-0.4,0.2-0.6,0.4c-0.2,0.2-0.3,0.4-0.4,0.6c-0.1,0.2-0.1,0.5-0.1,0.7v6.3c0,0.3,0,0.5,0.1,0.7
						c0.1,0.2,0.2,0.4,0.4,0.6c0.2,0.2,0.4,0.3,0.6,0.4c0.2,0.1,0.5,0.1,0.7,0.1h0.7c0.3,0,0.5,0,0.7-0.1c0.2-0.1,0.4-0.2,0.6-0.4
						c0.2-0.2,0.3-0.4,0.4-0.6c0.1-0.2,0.1-0.5,0.1-0.7V61.8z"/>
					<path class="st0" d="M244,70.8l-4.9-8.5l-0.1-0.5v9h-1.1V59.1h0.5l4.9,8.5l0.1,0.5v-9h1.1v11.7H244z"/>
					<path class="st0" d="M98.5,85.5c0,0.4-0.1,0.8-0.2,1.1c-0.2,0.3-0.4,0.7-0.6,0.9c-0.3,0.3-0.6,0.5-0.9,0.6
						c-0.4,0.2-0.7,0.2-1.1,0.2h-0.8c-0.4,0-0.8-0.1-1.1-0.2c-0.4-0.1-0.7-0.4-0.9-0.6c-0.3-0.3-0.5-0.6-0.6-0.9
						c-0.2-0.3-0.2-0.7-0.2-1.1V85l1.1-0.2v0.6c0,0.3,0.1,0.5,0.2,0.7c0.1,0.2,0.2,0.4,0.4,0.6c0.2,0.2,0.4,0.3,0.6,0.4
						c0.2,0.1,0.5,0.1,0.7,0.1h0.7c0.3,0,0.5,0,0.7-0.1c0.2-0.1,0.4-0.2,0.6-0.4s0.3-0.4,0.4-0.6c0.1-0.2,0.2-0.5,0.2-0.7v-0.4
						c0-0.4-0.1-0.7-0.2-1c-0.2-0.3-0.4-0.5-0.6-0.7c-0.3-0.2-0.6-0.3-0.9-0.5c-0.3-0.1-0.7-0.3-1-0.4c-0.3-0.1-0.7-0.3-1-0.4
						c-0.3-0.2-0.6-0.4-0.9-0.6c-0.3-0.2-0.5-0.5-0.6-0.9c-0.2-0.3-0.2-0.8-0.2-1.3v-0.2c0-0.4,0.1-0.8,0.2-1.1
						c0.2-0.3,0.4-0.7,0.6-0.9c0.3-0.3,0.6-0.5,0.9-0.6c0.4-0.2,0.7-0.2,1.1-0.2h0.8c0.4,0,0.8,0.1,1.1,0.2c0.3,0.2,0.7,0.4,0.9,0.6
						c0.3,0.3,0.5,0.6,0.6,0.9c0.2,0.3,0.2,0.7,0.2,1.1v0.3l-1.1,0.2v-0.5c0-0.3,0-0.5-0.1-0.7c-0.1-0.2-0.2-0.4-0.4-0.6
						c-0.2-0.2-0.4-0.3-0.6-0.4c-0.2-0.1-0.5-0.1-0.7-0.1h-0.7c-0.3,0-0.5,0-0.7,0.1c-0.2,0.1-0.4,0.2-0.6,0.4
						c-0.2,0.2-0.3,0.4-0.4,0.6c-0.1,0.2-0.1,0.5-0.1,0.7v0.2c0,0.4,0.1,0.7,0.2,0.9c0.2,0.3,0.4,0.5,0.6,0.7
						c0.3,0.2,0.6,0.3,0.9,0.5c0.3,0.1,0.7,0.3,1,0.4c0.3,0.1,0.7,0.3,1,0.5c0.3,0.2,0.6,0.4,0.9,0.6c0.3,0.2,0.5,0.5,0.6,0.9
						c0.2,0.3,0.2,0.8,0.2,1.3V85.5z"/>
					<path class="st0" d="M100.7,88.2V76.5h6.6v1h-5.6v4.4h4.5v1h-4.5v4.4h5.6v1H100.7z"/>
					<path class="st0" d="M115.6,86.6c-0.2,0.3-0.4,0.7-0.6,0.9c-0.3,0.3-0.6,0.5-0.9,0.6c-0.3,0.2-0.7,0.2-1.1,0.2h-0.8
						c-0.4,0-0.8-0.1-1.1-0.2c-0.4-0.1-0.7-0.4-0.9-0.6c-0.3-0.3-0.5-0.6-0.6-0.9c-0.2-0.3-0.2-0.7-0.2-1.1v-6.3
						c0-0.4,0.1-0.8,0.2-1.1c0.2-0.3,0.4-0.7,0.6-0.9c0.3-0.3,0.6-0.5,0.9-0.6c0.4-0.2,0.7-0.2,1.1-0.2h0.8c0.4,0,0.8,0.1,1.1,0.2
						c0.3,0.2,0.7,0.4,0.9,0.6c0.3,0.3,0.5,0.6,0.6,0.9c0.2,0.3,0.2,0.7,0.2,1.1v0.5l-1.1,0.2v-0.6c0-0.3,0-0.5-0.1-0.7
						c-0.1-0.2-0.2-0.4-0.4-0.6c-0.2-0.2-0.4-0.3-0.6-0.4c-0.2-0.1-0.5-0.1-0.7-0.1h-0.7c-0.3,0-0.5,0-0.7,0.1
						c-0.2,0.1-0.4,0.2-0.6,0.4c-0.2,0.2-0.3,0.4-0.4,0.6c-0.1,0.2-0.1,0.5-0.1,0.7v6.3c0,0.3,0,0.5,0.1,0.7s0.2,0.4,0.4,0.6
						c0.2,0.2,0.4,0.3,0.6,0.4c0.2,0.1,0.5,0.1,0.7,0.1h0.7c0.3,0,0.5,0,0.7-0.1c0.2-0.1,0.4-0.2,0.6-0.4c0.2-0.2,0.3-0.4,0.4-0.6
						s0.1-0.5,0.1-0.7v-0.6l1.1,0.2v0.5C115.8,85.9,115.7,86.3,115.6,86.6z"/>
					<path class="st0" d="M124.3,86.6c-0.2,0.3-0.4,0.7-0.6,0.9c-0.3,0.3-0.6,0.5-0.9,0.6c-0.3,0.2-0.7,0.2-1.1,0.2h-0.8
						c-0.4,0-0.8-0.1-1.1-0.2c-0.4-0.1-0.7-0.4-0.9-0.6c-0.3-0.3-0.5-0.6-0.6-0.9c-0.2-0.3-0.2-0.7-0.2-1.1v-9h1.1v9
						c0,0.3,0,0.5,0.1,0.7c0.1,0.2,0.2,0.4,0.4,0.6c0.2,0.2,0.4,0.3,0.6,0.4c0.2,0.1,0.5,0.1,0.7,0.1h0.7c0.3,0,0.5,0,0.7-0.1
						c0.2-0.1,0.4-0.2,0.6-0.4c0.2-0.2,0.3-0.4,0.4-0.6c0.1-0.2,0.1-0.5,0.1-0.7v-9h1.1v9C124.6,85.9,124.5,86.3,124.3,86.6z"/>
					<path class="st0" d="M132.6,88.2l-3.2-5H128v5h-1.1V76.5h3.7c0.4,0,0.8,0.1,1.1,0.2c0.3,0.2,0.7,0.4,0.9,0.6
						c0.3,0.3,0.5,0.6,0.6,0.9c0.2,0.4,0.2,0.7,0.2,1.1v0.9c0,0.4-0.1,0.8-0.2,1.1c-0.2,0.4-0.4,0.7-0.6,0.9
						c-0.3,0.3-0.6,0.5-0.9,0.6c-0.3,0.2-0.7,0.2-1.1,0.2l3.2,5H132.6z M132.5,79.3c0-0.3,0-0.5-0.1-0.7c-0.1-0.2-0.2-0.4-0.4-0.6
						c-0.2-0.2-0.4-0.3-0.6-0.4c-0.2-0.1-0.5-0.1-0.7-0.1H128v4.7h2.6c0.3,0,0.5,0,0.7-0.1c0.2-0.1,0.4-0.2,0.6-0.4
						c0.2-0.2,0.3-0.4,0.4-0.6c0.1-0.2,0.1-0.5,0.1-0.7V79.3z"/>
					<path class="st0" d="M135.8,88.2V76.5h1.1v11.7H135.8z"/>
					<path class="st0" d="M142.4,77.5v10.7h-1.1V77.5h-2.8v-1h6.7v1H142.4z"/>
					<path class="st0" d="M150,82.6v5.6h-1.1v-5.6l-3-6.1h1.1l2.4,4.9l2.4-4.9h1.1L150,82.6z"/>
					<path class="st0" d="M164.8,86.6c-0.2,0.3-0.4,0.7-0.6,0.9c-0.3,0.3-0.6,0.5-0.9,0.6c-0.3,0.2-0.7,0.2-1.1,0.2h-0.8
						c-0.4,0-0.8-0.1-1.1-0.2c-0.4-0.1-0.7-0.4-0.9-0.6c-0.3-0.3-0.5-0.6-0.6-0.9c-0.2-0.3-0.2-0.7-0.2-1.1v-6.3
						c0-0.4,0.1-0.8,0.2-1.1c0.2-0.3,0.4-0.7,0.6-0.9c0.3-0.3,0.6-0.5,0.9-0.6c0.4-0.2,0.7-0.2,1.1-0.2h0.8c0.4,0,0.8,0.1,1.1,0.2
						c0.3,0.2,0.7,0.4,0.9,0.6c0.3,0.3,0.5,0.6,0.6,0.9c0.2,0.3,0.2,0.7,0.2,1.1v0.5l-1.1,0.2v-0.6c0-0.3,0-0.5-0.1-0.7
						c-0.1-0.2-0.2-0.4-0.4-0.6c-0.2-0.2-0.4-0.3-0.6-0.4c-0.2-0.1-0.5-0.1-0.7-0.1h-0.7c-0.3,0-0.5,0-0.7,0.1
						c-0.2,0.1-0.4,0.2-0.6,0.4c-0.2,0.2-0.3,0.4-0.4,0.6c-0.1,0.2-0.1,0.5-0.1,0.7v6.3c0,0.3,0,0.5,0.1,0.7
						c0.1,0.2,0.2,0.4,0.4,0.6c0.2,0.2,0.4,0.3,0.6,0.4c0.2,0.1,0.5,0.1,0.7,0.1h0.7c0.3,0,0.5,0,0.7-0.1c0.2-0.1,0.4-0.2,0.6-0.4
						c0.2-0.2,0.3-0.4,0.4-0.6c0.1-0.2,0.1-0.5,0.1-0.7v-0.6L165,85v0.5C165,85.9,164.9,86.3,164.8,86.6z"/>
					<path class="st0" d="M173.5,86.6c-0.2,0.3-0.4,0.7-0.6,0.9c-0.3,0.3-0.6,0.5-0.9,0.6c-0.3,0.2-0.7,0.2-1.1,0.2H170
						c-0.4,0-0.8-0.1-1.1-0.2c-0.4-0.1-0.7-0.4-0.9-0.6c-0.3-0.3-0.5-0.6-0.6-0.9c-0.2-0.3-0.2-0.7-0.2-1.1v-6.3
						c0-0.4,0.1-0.8,0.2-1.1c0.2-0.3,0.4-0.7,0.6-0.9c0.3-0.3,0.6-0.5,0.9-0.6c0.4-0.2,0.7-0.2,1.1-0.2h0.8c0.4,0,0.8,0.1,1.1,0.2
						c0.3,0.2,0.7,0.4,0.9,0.6c0.3,0.3,0.5,0.6,0.6,0.9c0.2,0.3,0.2,0.7,0.2,1.1v6.3C173.8,85.9,173.7,86.3,173.5,86.6z M172.7,79.2
						c0-0.3,0-0.5-0.1-0.7c-0.1-0.2-0.2-0.4-0.4-0.6c-0.2-0.2-0.4-0.3-0.6-0.4c-0.2-0.1-0.5-0.1-0.7-0.1h-0.7c-0.3,0-0.5,0-0.7,0.1
						c-0.2,0.1-0.4,0.2-0.6,0.4c-0.2,0.2-0.3,0.4-0.4,0.6c-0.1,0.2-0.1,0.5-0.1,0.7v6.3c0,0.3,0,0.5,0.1,0.7
						c0.1,0.2,0.2,0.4,0.4,0.6c0.2,0.2,0.4,0.3,0.6,0.4c0.2,0.1,0.5,0.1,0.7,0.1h0.7c0.3,0,0.5,0,0.7-0.1c0.2-0.1,0.4-0.2,0.6-0.4
						c0.2-0.2,0.3-0.4,0.4-0.6s0.1-0.5,0.1-0.7V79.2z"/>
					<path class="st0" d="M182.3,88.2l-4.9-8.5l-0.1-0.5v9.1h-1.1V76.5h0.5l4.9,8.6l0.1,0.5v-9.1h1.1v11.7H182.3z"/>
					<path class="st0" d="M186.6,77.5v4.4h4.5v1h-4.5v5.4h-1.1V76.5h6.6v1H186.6z"/>
					<path class="st0" d="M193.9,88.2V76.5h6.6v1h-5.6v4.4h4.5v1h-4.5v4.4h5.6v1H193.9z"/>
					<path class="st0" d="M208,88.2l-3.2-5h-1.4v5h-1.1V76.5h3.7c0.4,0,0.8,0.1,1.1,0.2c0.3,0.2,0.7,0.4,0.9,0.6
						c0.3,0.3,0.5,0.6,0.6,0.9c0.2,0.4,0.2,0.7,0.2,1.1v0.9c0,0.4-0.1,0.8-0.2,1.1c-0.2,0.4-0.4,0.7-0.6,0.9
						c-0.3,0.3-0.6,0.5-0.9,0.6c-0.3,0.2-0.7,0.2-1.1,0.2l3.2,5H208z M207.9,79.3c0-0.3,0-0.5-0.1-0.7c-0.1-0.2-0.2-0.4-0.4-0.6
						c-0.2-0.2-0.4-0.3-0.6-0.4c-0.2-0.1-0.5-0.1-0.7-0.1h-2.6v4.7h2.6c0.3,0,0.5,0,0.7-0.1c0.2-0.1,0.4-0.2,0.6-0.4
						c0.2-0.2,0.3-0.4,0.4-0.6c0.1-0.2,0.1-0.5,0.1-0.7V79.3z"/>
					<path class="st0" d="M211.2,88.2V76.5h6.6v1h-5.6v4.4h4.5v1h-4.5v4.4h5.6v1H211.2z"/>
					<path class="st0" d="M225.9,88.2l-4.9-8.5l-0.1-0.5v9.1h-1.1V76.5h0.5l4.9,8.6l0.1,0.5v-9.1h1.1v11.7H225.9z"/>
					<path class="st0" d="M235.4,86.6c-0.2,0.3-0.4,0.7-0.6,0.9c-0.3,0.3-0.6,0.5-0.9,0.6c-0.3,0.2-0.7,0.2-1.1,0.2h-0.8
						c-0.4,0-0.8-0.1-1.1-0.2c-0.4-0.1-0.7-0.4-0.9-0.6c-0.3-0.3-0.5-0.6-0.6-0.9c-0.2-0.3-0.2-0.7-0.2-1.1v-6.3
						c0-0.4,0.1-0.8,0.2-1.1c0.2-0.3,0.4-0.7,0.6-0.9c0.3-0.3,0.6-0.5,0.9-0.6c0.4-0.2,0.7-0.2,1.1-0.2h0.8c0.4,0,0.8,0.1,1.1,0.2
						c0.3,0.2,0.7,0.4,0.9,0.6c0.3,0.3,0.5,0.6,0.6,0.9c0.2,0.3,0.2,0.7,0.2,1.1v0.5l-1.1,0.2v-0.6c0-0.3,0-0.5-0.1-0.7
						c-0.1-0.2-0.2-0.4-0.4-0.6c-0.2-0.2-0.4-0.3-0.6-0.4c-0.2-0.1-0.5-0.1-0.7-0.1h-0.7c-0.3,0-0.5,0-0.7,0.1
						c-0.2,0.1-0.4,0.2-0.6,0.4c-0.2,0.2-0.3,0.4-0.4,0.6c-0.1,0.2-0.1,0.5-0.1,0.7v6.3c0,0.3,0,0.5,0.1,0.7s0.2,0.4,0.4,0.6
						c0.2,0.2,0.4,0.3,0.6,0.4c0.2,0.1,0.5,0.1,0.7,0.1h0.7c0.3,0,0.5,0,0.7-0.1c0.2-0.1,0.4-0.2,0.6-0.4c0.2-0.2,0.3-0.4,0.4-0.6
						c0.1-0.2,0.1-0.5,0.1-0.7v-0.6l1.1,0.2v0.5C235.6,85.9,235.5,86.3,235.4,86.6z"/>
					<path class="st0" d="M237.9,88.2V76.5h6.6v1H239v4.4h4.5v1H239v4.4h5.6v1H237.9z"/>
				</g>
			</g>
		</g>
	</g>
</g>
</svg>
