<?xml version="1.0" encoding="utf-8"?>
<!-- Generator: Adobe Illustrator 24.3.0, SVG Export Plug-In . SVG Version: 6.00 Build 0)  -->
<svg version="1.1" id="Layer_1" xmlns="http://www.w3.org/2000/svg" xmlns:xlink="http://www.w3.org/1999/xlink" x="0px" y="0px"
	 viewBox="0 0 1080 1080" style="enable-background:new 0 0 1080 1080;" xml:space="preserve">
<style type="text/css">
	.st0{fill-rule:evenodd;clip-rule:evenodd;fill:url(#SVGID_1_);}
	.st1{fill:url(#SVGID_2_);}
	.st2{fill:#FFFFFF;}
</style>
<linearGradient id="SVGID_1_" gradientUnits="userSpaceOnUse" x1="78.4608" y1="494.1971" x2="607.9354" y2="494.1971" gradientTransform="matrix(0.1357 -0.9907 -0.9907 -0.1357 971.1905 1057.9194)">
	<stop  offset="0" style="stop-color:#59C4E8"/>
	<stop  offset="1" style="stop-color:#67BA86"/>
</linearGradient>
<path class="st0" d="M767.4,842.3c-12.9,54.4-62.3,92-118.2,89.7c-130.5-5.1-258.6-56.6-357.8-150.8c-40.5-38.5-48.4-100-18.5-147.3
	c33.9-53.5,77.7-102.1,131.1-142.5c55.6-42.2,116.8-72.1,180.2-90.2c53.4-15.2,109.9,9.2,135.6,58.5
	C782.7,580,797.4,716.2,767.4,842.3z"/>
<linearGradient id="SVGID_2_" gradientUnits="userSpaceOnUse" x1="385.9552" y1="542.9314" x2="876.9985" y2="542.9314" gradientTransform="matrix(0.9837 0.18 0.18 -0.9837 -120.7123 966.3836)">
	<stop  offset="0" style="stop-color:#E42065"/>
	<stop  offset="1" style="stop-color:#FCC045"/>
</linearGradient>
<path class="st1" d="M402.6,416.8c-42.1,30.9-56.4,87-34.2,134.3C420.2,661.5,511,752.9,628,804c47.9,20.9,103.6,5.2,133.4-37.6
	c33.7-48.6,59.5-103.9,75-164.6c16.1-63.2,19.6-126.7,12-187.7c-6.3-51.5-47.8-91.2-99.6-95.4C622.6,308.3,500.2,345.1,402.6,416.8z
	"/>
<g>
	<g>
		<path class="st2" d="M651.9,661.8c-8.5,3.8-18.1,6.9-28.7,9.2s-22.7,3.5-36.2,3.5c-19.1,0-37.2-2.6-54.4-8
			c-17.2-5.3-32.1-13.9-44.9-25.8c-12.8-11.8-22.9-27.3-30.5-46.4c-7.7-19.1-11.4-42.4-11.4-70c0-25.1,3.8-47.1,11.4-66.2
			c7.7-19.1,18.6-35.1,32.8-48c14.2-13,31.2-22.7,50.9-29.2c19.8-6.5,41.7-9.9,65.9-9.9c23.7,0,45.5,3.1,65.2,9.2
			c19.8,6.1,35.1,12.8,46.1,20c8,5.5,14.4,11.8,19.1,18.8c4.6,7,7,15.8,7,26.4v239.9c0,22-4.1,41.1-12.1,57.2s-19.2,29.4-33.4,39.8
			c-14.2,10.4-30.9,18.1-50,23.2c-19.1,5.1-39.6,7.7-61.8,7.7c-22.9,0-42.7-1.9-59.5-5.8c-16.7-3.8-30-8.7-39.8-14.7
			c-14.5-10.2-21.7-23.7-21.7-40.8c0-8.9,1.9-17.1,5.8-24.5c3.8-7.5,8-12.8,12.8-16.2c11.8,6.8,25.6,12.6,41,17.5
			c15.5,4.8,31.9,7.3,49.3,7.3c23.7,0,42.5-4.1,56.3-12.4c13.8-8.2,20.7-22,20.7-41L651.9,661.8L651.9,661.8z M604.2,601.3
			c10.2,0,19-1.2,26.4-3.8c7.4-2.6,14.1-6,20-10.2V456.9c-5.1-2.1-10.7-4.3-16.9-6.3c-6.1-2.1-13.9-3.2-23.2-3.2
			c-20.3,0-36.8,6.3-49.3,18.8c-12.5,12.5-18.8,32.1-18.8,58.9c0,14.5,1.6,26.5,4.8,36.2c3.2,9.7,7.5,17.6,13,23.5
			s12,10.2,19.4,12.8S595.3,601.3,604.2,601.3z"/>
	</g>
</g>
</svg>
