<?xml version="1.0" encoding="utf-8"?>
<!-- Generator: Adobe Illustrator 24.3.0, SVG Export Plug-In . SVG Version: 6.00 Build 0)  -->
<svg version="1.1" id="Layer_1" xmlns="http://www.w3.org/2000/svg" xmlns:xlink="http://www.w3.org/1999/xlink" x="0px" y="0px"
	 viewBox="0 0 1080 1080" style="enable-background:new 0 0 1080 1080;" xml:space="preserve">
<style type="text/css">
	.st0{fill-rule:evenodd;clip-rule:evenodd;fill:url(#SVGID_1_);}
	.st1{fill-rule:evenodd;clip-rule:evenodd;fill:url(#SVGID_2_);}
	.st2{fill:#FFFFFF;}
</style>
<linearGradient id="SVGID_1_" gradientUnits="userSpaceOnUse" x1="232.3756" y1="600.861" x2="1041.7726" y2="600.861" gradientTransform="matrix(6.123234e-17 1 -1 6.123234e-17 1081.1333 5.8941)">
	<stop  offset="0" style="stop-color:#59C4E8"/>
	<stop  offset="1" style="stop-color:#67BA86"/>
</linearGradient>
<path class="st0" d="M78.1,402.7c8.3-85.1,75.3-152.2,160.4-160.4c198.7-19.3,403.4,32.1,573.2,154.1c69.4,49.9,94,141.4,58.5,219.2
	c-40.2,88.1-96.5,170.7-169,243.1c-75.5,75.5-161.9,133.5-254.2,174c-77.8,34.1-168.4,8.8-217.5-60.4
	C109.4,803.1,58.9,599.9,78.1,402.7z"/>
<linearGradient id="SVGID_2_" gradientUnits="userSpaceOnUse" x1="-114.442" y1="211.1532" x2="569.6119" y2="460.1284" gradientTransform="matrix(-0.7538 0.6571 -0.6571 -0.7538 1085.9558 540.6744)">
	<stop  offset="0" style="stop-color:#E42065"/>
	<stop  offset="1" style="stop-color:#FCC045"/>
</linearGradient>
<path class="st1" d="M319.1,269.7c-53.4,56.5-59.3,142.6-14.1,205.9c105.5,147.8,263,257.4,448.1,300.9
	c75.7,17.8,153.1-20.1,185.3-90.9c36.4-80.2,59.3-168.2,65.7-261.2c6.6-96.9-5.3-190.8-32.7-278.2C948.3,72.5,876.8,25.5,800,33.1
	C612.3,51.9,442.8,138.6,319.1,269.7z"/>
<g>
	<g>
		<path class="st2" d="M537.8,703.4c-13,5.8-27.6,10.5-43.8,14.1c-16.2,3.6-34.7,5.4-55.4,5.4c-29.2,0-56.9-4-83.2-12.2
			c-26.3-8.1-49.1-21.2-68.6-39.4c-19.5-18.1-35-41.8-46.7-71c-11.7-29.2-17.5-64.8-17.5-107c0-38.3,5.8-72,17.5-101.2
			c11.7-29.2,28.4-53.7,50.1-73.4c21.7-19.8,47.7-34.7,77.8-44.7c30.2-10,63.7-15.1,100.7-15.1c36.3,0,69.5,4.7,99.7,14.1
			c30.2,9.4,53.7,19.6,70.5,30.6c12.3,8.4,22,18,29.2,28.7c7.1,10.7,10.7,24.2,10.7,40.4v366.7c0,33.7-6.2,62.9-18.5,87.5
			c-12.3,24.6-29.3,44.9-51.1,60.8c-21.7,15.9-47.2,27.7-76.4,35.5c-29.2,7.8-60.6,11.7-94.4,11.7c-35,0-65.3-2.9-90.9-8.8
			c-25.6-5.8-45.9-13.3-60.8-22.4c-22.1-15.6-33.1-36.3-33.1-62.3c0-13.6,2.9-26.1,8.8-37.4c5.8-11.4,12.3-19.6,19.5-24.8
			c18.1,10.4,39.1,19.3,62.7,26.7c23.7,7.4,48.8,11.2,75.4,11.2c36.3,0,65-6.3,86.1-19c21.1-12.6,31.6-33.6,31.6-62.7V703.4z
			 M464.8,611c15.6,0,29-1.9,40.4-5.8c11.3-3.9,21.6-9.1,30.6-15.6V390.2c-7.8-3.2-16.4-6.5-25.8-9.7c-9.4-3.2-21.2-4.9-35.5-4.9
			c-31.1,0-56.3,9.6-75.4,28.7c-19.1,19.1-28.7,49.1-28.7,90c0,22.1,2.4,40.5,7.3,55.4c4.9,14.9,11.5,26.9,19.9,36
			c8.4,9.1,18.3,15.6,29.7,19.5C438.7,609.1,451.2,611,464.8,611z"/>
	</g>
</g>
</svg>
